<svg xmlns="http://www.w3.org/2000/svg" version="1.1" xmlns:xlink="http://www.w3.org/1999/xlink" xmlns:svgjs="http://svgjs.com/svgjs" width="1440" height="560" preserveAspectRatio="none" viewBox="0 0 1440 560"><g mask="url(&quot;#SvgjsMask1000&quot;)" fill="none"><rect width="1440" height="560" x="0" y="0" fill="#1e3266"></rect><path d="M1464 560L0 560 L0 328.72Q50.16 258.88, 120 309.05Q173.43 290.48, 192 343.91Q222.64 254.56, 312 285.2Q359.62 260.81, 384 308.43Q461.44 265.87, 504 343.31Q549.03 316.34, 576 361.36Q579.99 293.35, 648 297.33Q676.21 253.54, 720 281.75Q823.36 265.11, 840 368.46Q872.39 280.85, 960 313.24Q1004.43 237.67, 1080 282.1Q1137.66 267.76, 1152 325.42Q1206.92 260.34, 1272 315.26Q1314.51 237.77, 1392 280.29Q1437.96 254.25, 1464 300.22z" fill="#182f5d"></path><path d="M1512 560L0 560 L0 353.47Q75.96 357.43, 72 433.39Q67.35 356.74, 144 352.08Q188.81 324.89, 216 369.7Q287.95 369.65, 288 441.6Q323.79 357.39, 408 393.19Q473.56 338.75, 528 404.32Q561.81 318.13, 648 351.94Q695.38 327.32, 720 374.7Q768.67 351.38, 792 400.05Q809.82 345.87, 864 363.68Q905.32 333, 936 374.32Q1028.11 346.43, 1056 438.54Q1109.74 372.28, 1176 426.03Q1206.64 336.67, 1296 367.32Q1326.82 326.13, 1368 356.95Q1418.26 335.21, 1440 385.47Q1467.65 341.12, 1512 368.77z" fill="#25467d"></path><path d="M1536 560L0 560 L0 434.99Q62.35 425.34, 72 487.69Q96.53 440.22, 144 464.74Q196.67 397.41, 264 450.08Q286.41 400.49, 336 422.9Q424.34 391.24, 456 479.58Q504.63 408.21, 576 456.84Q659.64 420.49, 696 504.13Q713.86 449.99, 768 467.85Q782.25 410.11, 840 424.36Q882 394.36, 912 436.35Q988.27 392.62, 1032 468.89Q1067.97 384.86, 1152 420.82Q1225.11 373.93, 1272 447.04Q1329.7 432.75, 1344 490.45Q1364.67 439.12, 1416 459.79Q1456.64 380.44, 1536 421.08z" fill="#356cb1"></path><path d="M1512 560L0 560 L0 532.47Q48.2 460.67, 120 508.87Q174.4 443.27, 240 497.67Q311.56 449.23, 360 520.78Q425.8 466.58, 480 532.37Q534.49 514.86, 552 569.35Q603.3 500.65, 672 551.96Q726.15 486.12, 792 540.27Q873.9 502.17, 912 584.08Q935.61 535.69, 984 559.31Q1029.35 484.65, 1104 530Q1162.93 516.93, 1176 575.86Q1181.11 508.97, 1248 514.08Q1273.93 468.01, 1320 493.94Q1372.65 474.59, 1392 527.24Q1464.47 479.71, 1512 552.18z" fill="white"></path></g><defs><mask id="SvgjsMask1000"><rect width="1440" height="560" fill="#ffffff"></rect></mask></defs></svg>